<svg width="27" height="20" viewBox="0 0 27 20" fill="none" xmlns="http://www.w3.org/2000/svg">
<path fill-rule="evenodd" clip-rule="evenodd" d="M1.8 3.6C1.8 2.6059 2.6059 1.8 3.6 1.8H23.4C24.3941 1.8 25.2 2.6059 25.2 3.6V16.2C25.2 17.1941 24.3941 18 23.4 18H3.6C2.6059 18 1.8 17.1941 1.8 16.2V3.6ZM3.6 0C1.61178 0 0 1.61177 0 3.6V16.2C0 18.1883 1.61178 19.8 3.6 19.8H23.4C25.3883 19.8 27 18.1883 27 16.2V3.6C27 1.61177 25.3883 0 23.4 0H3.6ZM4.05 3.6C3.80147 3.6 3.6 3.80147 3.6 4.05V6.75817C3.6 7.0067 3.80147 7.20817 4.05 7.20817H8.55C8.79853 7.20817 9 7.0067 9 6.75817V4.05C9 3.80147 8.79853 3.6 8.55 3.6H4.05Z" fill="#0058C1"/>
<path d="M16.8 15.6C20.0033 15.6 22.6 13.0033 22.6 9.8C22.6 6.59675 20.0033 4 16.8 4C13.5967 4 11 6.59675 11 9.8C11 13.0033 13.5967 15.6 16.8 15.6Z" stroke="#0058C1" stroke-width="6.08619"/>
</svg>
