<svg width="30" height="30" viewBox="0 0 30 30" fill="none" xmlns="http://www.w3.org/2000/svg">
<g clip-path="url(#clip0_1_1598)">
<path d="M24.375 3.75H21.5625V2.8125C21.5625 2.56386 21.4637 2.3254 21.2879 2.14959C21.1121 1.97377 20.8736 1.875 20.625 1.875C20.3764 1.875 20.1379 1.97377 19.9621 2.14959C19.7863 2.3254 19.6875 2.56386 19.6875 2.8125V3.75H10.3125V2.8125C10.3125 2.56386 10.2137 2.3254 10.0379 2.14959C9.8621 1.97377 9.62364 1.875 9.375 1.875C9.12636 1.875 8.8879 1.97377 8.71209 2.14959C8.53627 2.3254 8.4375 2.56386 8.4375 2.8125V3.75H5.625C5.12772 3.75 4.65081 3.94754 4.29917 4.29917C3.94754 4.65081 3.75 5.12772 3.75 5.625V24.375C3.75 24.8723 3.94754 25.3492 4.29917 25.7008C4.65081 26.0525 5.12772 26.25 5.625 26.25H24.375C24.8723 26.25 25.3492 26.0525 25.7008 25.7008C26.0525 25.3492 26.25 24.8723 26.25 24.375V5.625C26.25 5.12772 26.0525 4.65081 25.7008 4.29917C25.3492 3.94754 24.8723 3.75 24.375 3.75ZM24.375 9.375H5.625V5.625H8.4375V6.5625C8.4375 6.81114 8.53627 7.0496 8.71209 7.22541C8.8879 7.40123 9.12636 7.5 9.375 7.5C9.62364 7.5 9.8621 7.40123 10.0379 7.22541C10.2137 7.0496 10.3125 6.81114 10.3125 6.5625V5.625H19.6875V6.5625C19.6875 6.81114 19.7863 7.0496 19.9621 7.22541C20.1379 7.40123 20.3764 7.5 20.625 7.5C20.8736 7.5 21.1121 7.40123 21.2879 7.22541C21.4637 7.0496 21.5625 6.81114 21.5625 6.5625V5.625H24.375V9.375Z" fill="#005BC1"/>
<path d="M3.75 12.3176C3.75 11.0376 4.78764 10 6.06763 10V10C6.94548 10 7.74799 9.50402 8.14058 8.71885L9.16667 6.66667C9.43802 6.12397 9.57369 5.85262 9.76534 5.64465C10.0132 5.37568 10.3301 5.17983 10.6815 5.07841C10.9533 5 11.2566 5 11.8634 5H18.1366C18.7434 5 19.0467 5 19.3185 5.07841C19.6699 5.17983 19.9868 5.37568 20.2347 5.64465C20.4263 5.85262 20.562 6.12397 20.8333 6.66667L21.8594 8.71885C22.252 9.50402 23.0545 10 23.9324 10V10C25.2124 10 26.25 11.0376 26.25 12.3176V19C26.25 21.8284 26.25 23.2426 25.3713 24.1213C24.4926 25 23.0784 25 20.25 25H9.75C6.92157 25 5.50736 25 4.62868 24.1213C3.75 23.2426 3.75 21.8284 3.75 19V12.3176Z" stroke="white" stroke-width="2"/>
<circle cx="15" cy="16.25" r="4" stroke="white" stroke-width="2"/>
</g>
<defs>
<clipPath id="clip0_1_1598">
<rect width="30" height="30" fill="white"/>
</clipPath>
</defs>
</svg>
