<svg width="20" height="21" viewBox="0 0 20 21" fill="none" xmlns="http://www.w3.org/2000/svg">
<path d="M10 15.6401C10.2183 15.6401 10.4008 15.5663 10.5475 15.4188C10.695 15.2713 10.7687 15.0888 10.7687 14.8713C10.7687 14.653 10.695 14.4701 10.5475 14.3226C10.4008 14.1751 10.2183 14.1013 10 14.1013C9.78167 14.1013 9.59917 14.1751 9.4525 14.3226C9.305 14.4701 9.23125 14.653 9.23125 14.8713C9.23125 15.0888 9.305 15.2713 9.4525 15.4188C9.59917 15.5663 9.78167 15.6401 10 15.6401ZM9.375 11.9388H10.625V4.34258H9.375V11.9388ZM5.84125 20.1113L0 14.2813V5.95258L5.83 0.111328H14.1587L20 5.94133V14.2701L14.17 20.1113H5.84125Z" fill="#005BC1"/>
</svg>
