<svg width="27" height="27" viewBox="0 0 27 27" fill="none" xmlns="http://www.w3.org/2000/svg">
<path fill-rule="evenodd" clip-rule="evenodd" d="M19.7308 0C19.1572 0 18.6923 0.46494 18.6923 1.03846V2.07692L8.30769 2.07692V1.03846C8.30769 0.46494 7.84267 0 7.26923 0C6.69579 0 6.23077 0.46494 6.23077 1.03846V2.07692L3.11538 2.07692C1.39486 2.07692 0 3.47172 0 5.19231L0 23.8846C0 25.6051 1.39486 27 3.11538 27L23.8846 27C25.6052 27 27 25.6051 27 23.8846L27 5.19231C27 3.47172 25.6052 2.07692 23.8846 2.07692L20.7692 2.07692V1.03846C20.7692 0.46494 20.3043 0 19.7308 0ZM8.30769 4.15385V5.19231C8.30769 5.76583 7.84267 6.23077 7.26923 6.23077C6.69579 6.23077 6.23077 5.76583 6.23077 5.19231V4.15385H3.11538C2.54195 4.15385 2.07692 4.61879 2.07692 5.19231V8.30769L24.9231 8.30769V5.19231C24.9231 4.61879 24.4581 4.15385 23.8846 4.15385L20.7692 4.15385V5.19231C20.7692 5.76583 20.3043 6.23077 19.7308 6.23077C19.1572 6.23077 18.6923 5.76583 18.6923 5.19231V4.15385L8.30769 4.15385ZM24.9231 10.3846L24.9231 23.8846C24.9231 24.4581 24.4581 24.9231 23.8846 24.9231L3.11538 24.9231C2.54195 24.9231 2.07692 24.4581 2.07692 23.8846L2.07692 10.3846L24.9231 10.3846ZM14.5385 13.5C14.5385 12.9265 14.0735 12.4615 13.5 12.4615C12.9265 12.4615 12.4615 12.9265 12.4615 13.5C12.4615 14.0735 12.9265 14.5385 13.5 14.5385C14.0735 14.5385 14.5385 14.0735 14.5385 13.5ZM9.34615 12.4615C9.91968 12.4615 10.3846 12.9265 10.3846 13.5C10.3846 14.0735 9.91968 14.5385 9.34615 14.5385C8.77263 14.5385 8.30769 14.0735 8.30769 13.5C8.30769 12.9265 8.77263 12.4615 9.34615 12.4615ZM6.23077 13.5C6.23077 12.9265 5.76575 12.4615 5.19231 12.4615C4.61887 12.4615 4.15384 12.9265 4.15384 13.5C4.15384 14.0735 4.61887 14.5385 5.19231 14.5385C5.76575 14.5385 6.23077 14.0735 6.23077 13.5ZM5.19231 16.6154C5.76575 16.6154 6.23077 17.0803 6.23077 17.6538C6.23077 18.2274 5.76575 18.6923 5.19231 18.6923C4.61887 18.6923 4.15384 18.2274 4.15384 17.6538C4.15384 17.0803 4.61887 16.6154 5.19231 16.6154ZM10.3846 17.6538C10.3846 17.0803 9.91968 16.6154 9.34615 16.6154C8.77263 16.6154 8.30769 17.0803 8.30769 17.6538C8.30769 18.2274 8.77263 18.6923 9.34615 18.6923C9.91968 18.6923 10.3846 18.2274 10.3846 17.6538ZM13.5 16.6154C14.0735 16.6154 14.5385 17.0803 14.5385 17.6538C14.5385 18.2274 14.0735 18.6923 13.5 18.6923C12.9265 18.6923 12.4615 18.2274 12.4615 17.6538C12.4615 17.0803 12.9265 16.6154 13.5 16.6154ZM18.6923 17.6538C18.6923 17.0803 18.2274 16.6154 17.6538 16.6154C17.0803 16.6154 16.6154 17.0803 16.6154 17.6538C16.6154 18.2274 17.0803 18.6923 17.6538 18.6923C18.2274 18.6923 18.6923 18.2274 18.6923 17.6538ZM21.8077 16.6154C22.3812 16.6154 22.8462 17.0803 22.8462 17.6538C22.8462 18.2274 22.3812 18.6923 21.8077 18.6923C21.2342 18.6923 20.7692 18.2274 20.7692 17.6538C20.7692 17.0803 21.2342 16.6154 21.8077 16.6154ZM22.8462 21.8077C22.8462 21.2343 22.3812 20.7692 21.8077 20.7692C21.2342 20.7692 20.7692 21.2343 20.7692 21.8077C20.7692 22.3811 21.2342 22.8462 21.8077 22.8462C22.3812 22.8462 22.8462 22.3811 22.8462 21.8077ZM17.6538 20.7692C18.2274 20.7692 18.6923 21.2343 18.6923 21.8077C18.6923 22.3811 18.2274 22.8462 17.6538 22.8462C17.0803 22.8462 16.6154 22.3811 16.6154 21.8077C16.6154 21.2343 17.0803 20.7692 17.6538 20.7692ZM14.5385 21.8077C14.5385 21.2343 14.0735 20.7692 13.5 20.7692C12.9265 20.7692 12.4615 21.2343 12.4615 21.8077C12.4615 22.3811 12.9265 22.8462 13.5 22.8462C14.0735 22.8462 14.5385 22.3811 14.5385 21.8077ZM9.34615 20.7692C9.91968 20.7692 10.3846 21.2343 10.3846 21.8077C10.3846 22.3811 9.91968 22.8462 9.34615 22.8462C8.77263 22.8462 8.30769 22.3811 8.30769 21.8077C8.30769 21.2343 8.77263 20.7692 9.34615 20.7692Z" fill="#0058C1"/>
</svg>
