<svg width="17" height="18" viewBox="0 0 17 18" fill="none" xmlns="http://www.w3.org/2000/svg">
<path d="M15.125 1.48633H13.0625V0.798828C13.0625 0.616492 12.9901 0.441623 12.8611 0.312692C12.7322 0.183761 12.5573 0.111328 12.375 0.111328C12.1927 0.111328 12.0178 0.183761 11.8889 0.312692C11.7599 0.441623 11.6875 0.616492 11.6875 0.798828V1.48633H4.8125V0.798828C4.8125 0.616492 4.74007 0.441623 4.61114 0.312692C4.4822 0.183761 4.30734 0.111328 4.125 0.111328C3.94266 0.111328 3.7678 0.183761 3.63886 0.312692C3.50993 0.441623 3.4375 0.616492 3.4375 0.798828V1.48633H1.375C1.01033 1.48633 0.660591 1.63119 0.402728 1.88906C0.144866 2.14692 0 2.49666 0 2.86133V16.6113C0 16.976 0.144866 17.3257 0.402728 17.5836C0.660591 17.8415 1.01033 17.9863 1.375 17.9863H15.125C15.4897 17.9863 15.8394 17.8415 16.0973 17.5836C16.3551 17.3257 16.5 16.976 16.5 16.6113V2.86133C16.5 2.49666 16.3551 2.14692 16.0973 1.88906C15.8394 1.63119 15.4897 1.48633 15.125 1.48633ZM15.125 5.61133H1.375V2.86133H3.4375V3.54883C3.4375 3.73116 3.50993 3.90603 3.63886 4.03496C3.7678 4.1639 3.94266 4.23633 4.125 4.23633C4.30734 4.23633 4.4822 4.1639 4.61114 4.03496C4.74007 3.90603 4.8125 3.73116 4.8125 3.54883V2.86133H11.6875V3.54883C11.6875 3.73116 11.7599 3.90603 11.8889 4.03496C12.0178 4.1639 12.1927 4.23633 12.375 4.23633C12.5573 4.23633 12.7322 4.1639 12.8611 4.03496C12.9901 3.90603 13.0625 3.73116 13.0625 3.54883V2.86133H15.125V5.61133Z" fill="#1976D2"/>
</svg>
