<svg width="26" height="23" viewBox="0 0 26 23" fill="none" xmlns="http://www.w3.org/2000/svg">
<path d="M24 0.111328H2C1.46957 0.111328 0.960859 0.322042 0.585786 0.697114C0.210714 1.07219 0 1.5809 0 2.11133V21.1113C9.09903e-05 21.2818 0.0437432 21.4494 0.126812 21.5982C0.209881 21.747 0.32961 21.8721 0.474632 21.9617C0.619654 22.0512 0.785156 22.1022 0.955425 22.1098C1.12569 22.1174 1.29508 22.0813 1.4475 22.0051L5 20.2288L8.5525 22.0051C8.69143 22.0746 8.84465 22.1108 9 22.1108C9.15535 22.1108 9.30857 22.0746 9.4475 22.0051L13 20.2288L16.5525 22.0051C16.6914 22.0746 16.8446 22.1108 17 22.1108C17.1554 22.1108 17.3086 22.0746 17.4475 22.0051L21 20.2288L24.5525 22.0051C24.7049 22.0813 24.8743 22.1174 25.0446 22.1098C25.2148 22.1022 25.3803 22.0512 25.5254 21.9617C25.6704 21.8721 25.7901 21.747 25.8732 21.5982C25.9563 21.4494 25.9999 21.2818 26 21.1113V2.11133C26 1.5809 25.7893 1.07219 25.4142 0.697114C25.0391 0.322042 24.5304 0.111328 24 0.111328ZM19 13.1113H7C6.73478 13.1113 6.48043 13.006 6.29289 12.8184C6.10536 12.6309 6 12.3765 6 12.1113C6 11.8461 6.10536 11.5918 6.29289 11.4042C6.48043 11.2167 6.73478 11.1113 7 11.1113H19C19.2652 11.1113 19.5196 11.2167 19.7071 11.4042C19.8946 11.5918 20 11.8461 20 12.1113C20 12.3765 19.8946 12.6309 19.7071 12.8184C19.5196 13.006 19.2652 13.1113 19 13.1113ZM19 9.11133H7C6.73478 9.11133 6.48043 9.00597 6.29289 8.81843C6.10536 8.6309 6 8.37654 6 8.11133C6 7.84611 6.10536 7.59176 6.29289 7.40422C6.48043 7.21669 6.73478 7.11133 7 7.11133H19C19.2652 7.11133 19.5196 7.21669 19.7071 7.40422C19.8946 7.59176 20 7.84611 20 8.11133C20 8.37654 19.8946 8.6309 19.7071 8.81843C19.5196 9.00597 19.2652 9.11133 19 9.11133Z" fill="white"/>
</svg>
