<svg width="30" height="18" viewBox="0 0 30 18" fill="none" xmlns="http://www.w3.org/2000/svg">
<path d="M19.6875 9C19.6875 9.9271 19.4126 10.8334 18.8975 11.6042C18.3824 12.3751 17.6504 12.9759 16.7938 13.3307C15.9373 13.6855 14.9948 13.7783 14.0855 13.5974C13.1762 13.4166 12.341 12.9701 11.6854 12.3146C11.0299 11.659 10.5834 10.8238 10.4026 9.91449C10.2217 9.0052 10.3145 8.0627 10.6693 7.20617C11.0241 6.34964 11.6249 5.61756 12.3958 5.10249C13.1666 4.58742 14.0729 4.3125 15 4.3125C16.2432 4.3125 17.4355 4.80636 18.3146 5.68544C19.1936 6.56451 19.6875 7.7568 19.6875 9ZM29.0625 1.5V16.5C29.0625 16.7486 28.9637 16.9871 28.7879 17.1629C28.6121 17.3387 28.3736 17.4375 28.125 17.4375H1.875C1.62636 17.4375 1.3879 17.3387 1.21209 17.1629C1.03627 16.9871 0.9375 16.7486 0.9375 16.5V1.5C0.9375 1.25136 1.03627 1.0129 1.21209 0.837088C1.3879 0.661272 1.62636 0.5625 1.875 0.5625H28.125C28.3736 0.5625 28.6121 0.661272 28.7879 0.837088C28.9637 1.0129 29.0625 1.25136 29.0625 1.5ZM27.1875 6.93164C26.123 6.61688 25.1541 6.04079 24.3692 5.25584C23.5842 4.47089 23.0081 3.50203 22.6934 2.4375H7.30664C6.99188 3.50203 6.41579 4.47089 5.63084 5.25584C4.84589 6.04079 3.87703 6.61688 2.8125 6.93164V11.0684C3.87703 11.3831 4.84589 11.9592 5.63084 12.7442C6.41579 13.5291 6.99188 14.498 7.30664 15.5625H22.6934C23.0081 14.498 23.5842 13.5291 24.3692 12.7442C25.1541 11.9592 26.123 11.3831 27.1875 11.0684V6.93164Z" fill="white"/>
</svg>
