<svg width="18" height="18" viewBox="0 0 18 18" fill="none" xmlns="http://www.w3.org/2000/svg">
<path d="M17.4133 4.42638L13.5727 0.585829C13.461 0.474095 13.3284 0.385463 13.1824 0.324993C13.0364 0.264522 12.88 0.233398 12.722 0.233398C12.5639 0.233398 12.4075 0.264522 12.2615 0.324993C12.1155 0.385463 11.9829 0.474095 11.8712 0.585829L1.27422 11.1836C1.16227 11.2952 1.07351 11.4278 1.01304 11.5738C0.952565 11.7198 0.921584 11.8764 0.921877 12.0344V15.875C0.921877 16.1941 1.04863 16.5001 1.27426 16.7257C1.49989 16.9513 1.80591 17.0781 2.125 17.0781H5.96555C6.12359 17.0784 6.28013 17.0474 6.42615 16.9869C6.57216 16.9265 6.70477 16.8377 6.81633 16.7257L17.4133 6.12794C17.525 6.01622 17.6136 5.88358 17.6741 5.7376C17.7346 5.59162 17.7657 5.43516 17.7657 5.27716C17.7657 5.11915 17.7346 4.96269 17.6741 4.81671C17.6136 4.67074 17.525 4.5381 17.4133 4.42638ZM6.08672 15.9961C6.05464 16.0284 6.01106 16.0467 5.96555 16.0468H2.125C2.07942 16.0468 2.0357 16.0287 2.00347 15.9965C1.97124 15.9643 1.95313 15.9206 1.95313 15.875V12.0344C1.95332 11.9889 1.97155 11.9453 2.00383 11.9133L9.6875 4.22872L13.7704 8.31247L6.08672 15.9961ZM16.6837 5.39919L14.5 7.58286L10.4171 3.49997L12.6008 1.31544C12.6167 1.29946 12.6357 1.28678 12.6566 1.27813C12.6774 1.26948 12.6998 1.26503 12.7224 1.26503C12.745 1.26503 12.7673 1.26948 12.7882 1.27813C12.8091 1.28678 12.828 1.29946 12.844 1.31544L16.6837 5.15598C16.6997 5.17195 16.7123 5.1909 16.721 5.21177C16.7296 5.23263 16.7341 5.255 16.7341 5.27759C16.7341 5.30017 16.7296 5.32254 16.721 5.3434C16.7123 5.36427 16.6997 5.38323 16.6837 5.39919Z" fill="#F25A05"/>
</svg>
