<svg width="21" height="18" viewBox="0 0 21 18" fill="none" xmlns="http://www.w3.org/2000/svg">
<path d="M17.5 5H3.5C1.84 5 0.5 6.34 0.5 8V12C0.5 13.1 1.4 14 2.5 14H4.5V16C4.5 17.1 5.4 18 6.5 18H14.5C15.6 18 16.5 17.1 16.5 16V14H18.5C19.6 14 20.5 13.1 20.5 12V8C20.5 6.34 19.16 5 17.5 5ZM13.5 16H7.5C6.95 16 6.5 15.55 6.5 15V11H14.5V15C14.5 15.55 14.05 16 13.5 16ZM17.5 9C16.95 9 16.5 8.55 16.5 8C16.5 7.45 16.95 7 17.5 7C18.05 7 18.5 7.45 18.5 8C18.5 8.55 18.05 9 17.5 9ZM15.5 0H5.5C4.95 0 4.5 0.45 4.5 1V3C4.5 3.55 4.95 4 5.5 4H15.5C16.05 4 16.5 3.55 16.5 3V1C16.5 0.45 16.05 0 15.5 0Z" fill="#333333"/>
</svg>
