<svg width="28" height="28" viewBox="0 0 28 28" fill="none" xmlns="http://www.w3.org/2000/svg">
<path d="M25 14.2701C25.005 14.0901 25.005 13.9101 25 13.7301L26.865 11.4001C26.9628 11.2777 27.0305 11.1341 27.0626 10.9808C27.0947 10.8276 27.0904 10.6689 27.05 10.5176C26.7437 9.36849 26.2864 8.26513 25.69 7.23631C25.6118 7.1017 25.5033 6.9872 25.3731 6.90192C25.2429 6.81664 25.0946 6.76292 24.94 6.74506L21.975 6.41506C21.8517 6.28506 21.7267 6.16006 21.6 6.04006L21.25 3.06756C21.232 2.91282 21.1781 2.76443 21.0926 2.63422C21.0071 2.50401 20.8923 2.39557 20.7575 2.31756C19.7288 1.72162 18.6253 1.26512 17.4762 0.960057C17.3249 0.919632 17.1662 0.915313 17.013 0.947446C16.8597 0.979579 16.7161 1.04727 16.5937 1.14506L14.27 3.00006C14.09 3.00006 13.91 3.00006 13.73 3.00006L11.4 1.13881C11.2777 1.04102 11.1341 0.973329 10.9808 0.941196C10.8275 0.909063 10.6688 0.913382 10.5175 0.953807C9.36843 1.26009 8.26506 1.71741 7.23625 2.31381C7.10164 2.39196 6.98714 2.50046 6.90186 2.63067C6.81658 2.76087 6.76286 2.90919 6.745 3.06381L6.415 6.03381C6.285 6.15797 6.16 6.28297 6.04 6.40881L3.0675 6.75006C2.91276 6.76806 2.76437 6.82196 2.63416 6.90747C2.50395 6.99298 2.39551 7.10772 2.3175 7.24256C1.72168 8.27151 1.26479 9.37486 0.958746 10.5238C0.918492 10.6752 0.914375 10.834 0.946726 10.9872C0.979078 11.1405 1.04699 11.2841 1.145 11.4063L3 13.7301C3 13.9101 3 14.0901 3 14.2701L1.13875 16.6001C1.04096 16.7224 0.973268 16.866 0.941135 17.0193C0.909002 17.1726 0.913321 17.3312 0.953746 17.4826C1.26003 18.6316 1.71735 19.735 2.31375 20.7638C2.3919 20.8984 2.5004 21.0129 2.63061 21.0982C2.76081 21.1835 2.90913 21.2372 3.06375 21.2551L6.02875 21.5851C6.15291 21.7151 6.27791 21.8401 6.40375 21.9601L6.75 24.9326C6.768 25.0873 6.8219 25.2357 6.90741 25.3659C6.99291 25.4961 7.10766 25.6045 7.2425 25.6826C8.27145 26.2784 9.3748 26.7353 10.5237 27.0413C10.6752 27.0816 10.8339 27.0857 10.9872 27.0533C11.1405 27.021 11.284 26.9531 11.4062 26.8551L13.73 25.0001C13.91 25.0051 14.09 25.0051 14.27 25.0001L16.6 26.8651C16.7223 26.9628 16.8659 27.0305 17.0192 27.0627C17.1725 27.0948 17.3312 27.0905 17.4825 27.0501C18.6317 26.7443 19.7352 26.287 20.7637 25.6901C20.8983 25.6119 21.0128 25.5034 21.0981 25.3732C21.1834 25.243 21.2371 25.0947 21.255 24.9401L21.585 21.9751C21.715 21.8517 21.84 21.7267 21.96 21.6001L24.9325 21.2501C25.0872 21.2321 25.2356 21.1782 25.3658 21.0926C25.496 21.0071 25.6045 20.8924 25.6825 20.7576C26.2783 19.7286 26.7352 18.6253 27.0412 17.4763C27.0815 17.3249 27.0856 17.1662 27.0533 17.0129C27.0209 16.8596 26.953 16.716 26.855 16.5938L25 14.2701ZM14 19.0001C13.0111 19.0001 12.0444 18.7068 11.2221 18.1574C10.3999 17.608 9.75904 16.8271 9.3806 15.9135C9.00216 14.9998 8.90314 13.9945 9.09607 13.0246C9.289 12.0547 9.7652 11.1638 10.4645 10.4645C11.1637 9.76526 12.0546 9.28906 13.0245 9.09613C13.9944 8.9032 14.9998 9.00222 15.9134 9.38066C16.827 9.7591 17.6079 10.4 18.1573 11.2222C18.7068 12.0445 19 13.0112 19 14.0001C19 15.3261 18.4732 16.5979 17.5355 17.5356C16.5978 18.4733 15.3261 19.0001 14 19.0001Z" fill="white"/>
</svg>
