<svg width="28" height="28" viewBox="0 0 28 28" fill="none" xmlns="http://www.w3.org/2000/svg">
<path d="M25.0001 14.2701C25.0051 14.0901 25.0051 13.9101 25.0001 13.7301L26.8651 11.4001C26.9628 11.2777 27.0305 11.1341 27.0627 10.9808C27.0948 10.8276 27.0905 10.6689 27.0501 10.5176C26.7438 9.36849 26.2865 8.26513 25.6901 7.23631C25.6119 7.1017 25.5034 6.9872 25.3732 6.90192C25.243 6.81664 25.0947 6.76292 24.9401 6.74506L21.9751 6.41506C21.8517 6.28506 21.7267 6.16006 21.6001 6.04006L21.2501 3.06756C21.2321 2.91282 21.1782 2.76443 21.0926 2.63422C21.0071 2.50401 20.8924 2.39557 20.7576 2.31756C19.7288 1.72162 18.6254 1.26512 17.4763 0.960057C17.325 0.919632 17.1663 0.915313 17.013 0.947446C16.8597 0.979579 16.7161 1.04727 16.5938 1.14506L14.2701 3.00006C14.0901 3.00006 13.9101 3.00006 13.7301 3.00006L11.4001 1.13881C11.2777 1.04102 11.1341 0.973329 10.9808 0.941196C10.8276 0.909063 10.6689 0.913382 10.5176 0.953807C9.36849 1.26009 8.26513 1.71741 7.23631 2.31381C7.1017 2.39196 6.9872 2.50046 6.90192 2.63067C6.81664 2.76087 6.76292 2.90919 6.74506 3.06381L6.41506 6.03381C6.28506 6.15797 6.16006 6.28297 6.04006 6.40881L3.06756 6.75006C2.91282 6.76806 2.76443 6.82196 2.63422 6.90747C2.50401 6.99298 2.39557 7.10772 2.31756 7.24256C1.72174 8.27151 1.26485 9.37486 0.958807 10.5238C0.918553 10.6752 0.914436 10.834 0.946787 10.9872C0.979139 11.1405 1.04705 11.2841 1.14506 11.4063L3.00006 13.7301C3.00006 13.9101 3.00006 14.0901 3.00006 14.2701L1.13881 16.6001C1.04102 16.7224 0.973329 16.866 0.941196 17.0193C0.909063 17.1726 0.913382 17.3312 0.953807 17.4826C1.26009 18.6316 1.71741 19.735 2.31381 20.7638C2.39196 20.8984 2.50046 21.0129 2.63067 21.0982C2.76087 21.1835 2.90919 21.2372 3.06381 21.2551L6.02881 21.5851C6.15297 21.7151 6.27797 21.8401 6.40381 21.9601L6.75006 24.9326C6.76806 25.0873 6.82196 25.2357 6.90747 25.3659C6.99298 25.4961 7.10772 25.6045 7.24256 25.6826C8.27151 26.2784 9.37486 26.7353 10.5238 27.0413C10.6752 27.0816 10.834 27.0857 10.9872 27.0533C11.1405 27.021 11.2841 26.9531 11.4063 26.8551L13.7301 25.0001C13.9101 25.0051 14.0901 25.0051 14.2701 25.0001L16.6001 26.8651C16.7224 26.9628 16.866 27.0305 17.0193 27.0627C17.1726 27.0948 17.3312 27.0905 17.4826 27.0501C18.6318 26.7443 19.7352 26.287 20.7638 25.6901C20.8984 25.6119 21.0129 25.5034 21.0982 25.3732C21.1835 25.243 21.2372 25.0947 21.2551 24.9401L21.5851 21.9751C21.7151 21.8517 21.8401 21.7267 21.9601 21.6001L24.9326 21.2501C25.0873 21.2321 25.2357 21.1782 25.3659 21.0926C25.4961 21.0071 25.6045 20.8924 25.6826 20.7576C26.2784 19.7286 26.7353 18.6253 27.0413 17.4763C27.0816 17.3249 27.0857 17.1662 27.0533 17.0129C27.021 16.8596 26.9531 16.716 26.8551 16.5938L25.0001 14.2701ZM14.0001 19.0001C13.0112 19.0001 12.0445 18.7068 11.2222 18.1574C10.4 17.608 9.7591 16.8271 9.38066 15.9135C9.00222 14.9998 8.9032 13.9945 9.09613 13.0246C9.28906 12.0547 9.76526 11.1638 10.4645 10.4645C11.1638 9.76526 12.0547 9.28906 13.0246 9.09613C13.9945 8.9032 14.9998 9.00222 15.9135 9.38066C16.8271 9.7591 17.608 10.4 18.1574 11.2222C18.7068 12.0445 19.0001 13.0112 19.0001 14.0001C19.0001 15.3261 18.4733 16.5979 17.5356 17.5356C16.5979 18.4733 15.3261 19.0001 14.0001 19.0001Z" fill="#0058C1"/>
</svg>
