<svg width="27" height="27" viewBox="0 0 27 27" fill="none" xmlns="http://www.w3.org/2000/svg">
<path fill-rule="evenodd" clip-rule="evenodd" d="M13.5 0C12.9394 0 12.4849 0.45444 12.4849 1.01504V5.42509C12.4849 5.98567 12.9394 6.44013 13.5 6.44013C14.0606 6.44013 14.515 5.98567 14.515 5.42509V2.07438C20.3743 2.58815 24.9699 7.50737 24.9699 13.5C24.9699 19.8347 19.8347 24.9699 13.5 24.9699C7.16533 24.9699 2.03008 19.8347 2.03008 13.5C2.03008 10.6703 3.05342 8.08233 4.75141 6.08194C5.11418 5.65457 5.06181 5.01402 4.63442 4.65125C4.20705 4.28847 3.5665 4.34085 3.20372 4.76822C1.20601 7.1217 0 10.1713 0 13.5C0 20.9559 6.04414 27 13.5 27C20.9559 27 27 20.9559 27 13.5C27 6.04414 20.9559 0 13.5 0ZM11.9582 14.6789L6.84876 7.55673C6.70397 7.3549 6.72661 7.07793 6.90225 6.90229C7.07787 6.72665 7.35486 6.70401 7.55666 6.8488L14.6789 11.9582C15.6565 12.6596 15.7718 14.0703 14.921 14.9211C14.0703 15.7719 12.6595 15.6565 11.9582 14.6789Z" fill="#0058C1"/>
</svg>
